<?xml version="1.0" standalone="no"?>
<!DOCTYPE svg PUBLIC "-//W3C//DTD SVG 20010904//EN"
 "http://www.w3.org/TR/2001/REC-SVG-20010904/DTD/svg10.dtd">
<svg version="1.0" xmlns="http://www.w3.org/2000/svg"
 width="186.000000pt" height="240.000000pt" viewBox="0 0 186.000000 240.000000"
 preserveAspectRatio="xMidYMid meet">
<metadata>
Created by potrace 1.10, written by Peter Selinger 2001-2011
</metadata>
<g transform="translate(0.000000,240.000000) scale(0.100000,-0.100000)"
fill="#000000" stroke="none">
<path d="M860 2328 c-36 -11 -68 -25 -72 -31 -3 -6 -42 -11 -85 -13 -46 -1
-91 -8 -109 -16 -16 -9 -42 -18 -58 -22 -23 -6 -27 -4 -23 8 4 9 4 16 2 16 -7
0 -55 -54 -55 -63 0 -4 -9 -21 -20 -37 -11 -17 -29 -43 -40 -60 -16 -23 -61
-128 -65 -150 -1 -3 -11 -21 -23 -40 -12 -19 -21 -46 -21 -60 1 -21 2 -21 6
-5 3 11 9 24 13 29 5 5 4 -9 -1 -30 -16 -63 -20 -213 -7 -299 6 -44 11 -101
10 -127 -2 -28 2 -48 8 -48 5 0 10 12 10 26 0 22 5 17 28 -27 15 -29 34 -55
42 -57 11 -4 9 2 -5 18 -14 16 -16 24 -7 27 18 7 15 20 -8 26 -12 3 -20 14
-20 25 0 12 -5 24 -10 27 -6 4 -8 11 -5 16 11 17 14 49 5 54 -5 3 -6 13 -3 22
5 13 2 15 -11 10 -13 -5 -17 -3 -13 7 13 33 18 104 9 141 -6 28 -5 54 3 82 8
27 9 45 3 51 -6 6 -6 12 0 16 6 3 8 23 5 45 -3 25 -1 41 7 46 9 5 11 4 6 -3
-4 -8 -2 -10 7 -6 9 3 13 13 10 25 -3 10 -1 19 5 19 6 0 11 10 10 23 -2 39 25
89 45 83 17 -4 42 26 30 38 -3 3 2 15 12 26 17 19 17 20 0 20 -17 0 -17 2 3
21 12 11 20 24 17 28 -5 9 46 23 54 15 2 -2 -2 -10 -9 -19 -26 -32 -1 -24 33
10 32 32 67 49 52 25 -3 -5 -1 -10 4 -10 6 0 11 4 11 9 0 5 9 7 20 4 11 -3 31
2 45 11 19 12 30 14 44 6 21 -10 51 -4 63 14 5 7 8 7 8 -2 0 -7 4 -11 9 -7 5
3 12 1 16 -5 3 -5 11 -10 17 -10 5 0 0 8 -13 19 l-23 18 22 7 c12 4 32 4 43 1
15 -5 19 -4 14 5 -5 8 -1 11 11 9 11 -1 32 3 47 9 35 15 40 15 31 0 -5 -8 -2
-9 9 -5 10 3 17 3 17 -1 0 -4 13 -16 30 -27 26 -17 27 -21 12 -28 -11 -5 -7
-5 10 -2 19 4 34 -1 46 -13 10 -10 26 -21 35 -25 9 -3 17 -11 17 -17 0 -5 9
-10 20 -10 11 0 20 -7 20 -16 0 -8 5 -12 10 -9 6 3 10 2 10 -2 0 -5 14 -17 32
-27 28 -17 31 -17 25 -3 -6 16 -4 15 21 0 41 -27 89 -78 84 -91 -2 -6 6 -25
17 -41 21 -29 19 -67 -2 -54 -6 4 -7 1 -3 -6 5 -7 14 -10 22 -7 8 3 14 2 14
-2 0 -4 7 -16 16 -27 12 -16 16 -17 23 -6 6 9 11 10 15 2 4 -6 2 -11 -4 -11
-6 0 -8 -4 -5 -10 10 -16 23 -12 30 10 5 16 -3 31 -32 60 -21 22 -38 45 -38
52 -2 49 -49 138 -72 138 -3 0 2 -9 12 -20 29 -33 12 -32 -23 1 -18 16 -32 27
-32 24 0 -10 -77 34 -83 47 -2 8 -26 25 -52 38 -25 13 -51 32 -56 43 -6 11
-17 16 -25 13 -8 -3 -13 -2 -9 3 3 5 -12 15 -32 22 -21 6 -40 15 -43 20 -13
19 -106 18 -170 -3z"/>
<path d="M1320 2181 c52 -8 85 -24 99 -49 6 -9 11 -12 11 -6 0 6 -12 22 -27
35 -21 19 -40 25 -78 26 l-50 1 45 -7z"/>
<path d="M416 2054 c-9 -24 -7 -44 5 -44 5 0 8 4 4 9 -3 5 -1 12 5 16 12 8 13
35 1 35 -5 0 -12 -7 -15 -16z"/>
<path d="M950 1913 c0 -6 -8 -14 -17 -16 -10 -3 7 -5 37 -4 30 0 42 2 25 4
-16 3 -33 10 -37 16 -6 9 -8 9 -8 0z"/>
<path d="M1150 1889 c14 -11 19 -18 13 -14 -7 3 -13 2 -13 -3 0 -10 99 -26
108 -17 3 3 -6 5 -20 5 -14 0 -36 8 -49 18 -13 10 -33 22 -44 25 -16 6 -16 3
5 -14z"/>
<path d="M1470 1837 c0 -18 6 -42 14 -52 19 -26 9 -47 -18 -40 -16 5 -18 4 -6
-4 8 -6 16 -18 16 -28 1 -10 3 -22 4 -28 1 -5 2 -16 1 -24 -1 -11 -4 -11 -17
0 -15 12 -15 5 -9 -76 8 -94 18 -135 38 -147 9 -6 9 -8 -1 -8 -10 0 -10 -5 -2
-20 9 -16 8 -20 -5 -20 -10 0 -15 -10 -15 -27 0 -16 -3 -39 -6 -53 -4 -20 -3
-22 5 -10 6 8 11 29 11 46 0 25 5 33 23 38 27 6 31 31 11 60 -10 14 -10 24 -2
40 6 12 11 64 10 121 -1 55 -2 115 -2 134 -1 41 -29 131 -41 131 -5 0 -9 -15
-9 -33z"/>
<path d="M1089 1793 c-4 -38 -7 -53 -18 -86 -7 -21 -10 -41 -7 -44 3 -4 9 8
12 25 4 18 9 30 13 27 4 -2 7 16 7 41 1 24 -1 44 -3 44 -1 0 -3 -3 -4 -7z"/>
<path d="M1390 1769 c13 -23 37 -35 48 -24 4 4 1 10 -6 12 -6 3 -9 10 -6 15 4
6 2 8 -4 4 -6 -3 -13 -2 -17 4 -12 20 -26 10 -15 -11z"/>
<path d="M542 1740 c-15 -25 -15 -38 1 -55 20 -20 41 -3 31 26 -4 13 -8 27 -9
31 -1 16 -12 15 -23 -2z"/>
<path d="M1248 1502 c-28 -2 -38 -8 -38 -20 0 -10 3 -13 8 -7 4 6 25 11 47 11
22 1 34 0 28 -3 -7 -3 -13 -12 -13 -21 1 -15 2 -15 14 1 12 16 17 16 55 2 22
-8 41 -12 41 -10 0 3 12 0 28 -5 24 -9 25 -8 10 4 -10 7 -18 16 -18 19 0 4 8
4 18 0 9 -3 14 -3 10 1 -3 4 -12 9 -20 10 -7 2 -22 6 -33 10 -40 16 -48 16
-61 5 -9 -7 -19 -8 -26 -3 -7 5 -30 8 -50 6z"/>
<path d="M1180 1492 c0 -7 -7 -12 -16 -12 -11 0 -14 -5 -10 -16 3 -9 6 -18 6
-20 0 -2 4 -4 9 -4 10 0 25 50 16 58 -3 3 -5 0 -5 -6z"/>
<path d="M875 1466 c15 -14 34 -26 42 -26 7 0 16 -7 20 -16 4 -12 8 -13 13 -3
11 17 1 39 -15 33 -7 -3 -19 1 -27 9 -8 8 -25 18 -38 22 -23 7 -23 7 5 -19z"/>
<path d="M772 1448 c-4 -4 -23 -10 -42 -12 -45 -6 -71 -16 -65 -26 2 -4 -8
-13 -22 -19 -20 -9 -23 -15 -14 -20 14 -9 48 -3 56 9 3 5 -5 6 -17 3 -22 -6
-22 -5 2 14 21 17 80 37 80 27 0 -2 -12 -10 -27 -18 -16 -8 -23 -15 -17 -16 6
0 23 9 38 21 17 13 35 19 48 15 21 -5 48 8 48 24 0 9 -58 7 -68 -2z"/>
<path d="M1185 1438 c-21 -11 -44 -26 -49 -32 -57 -63 -60 -67 -44 -61 14 5
23 -5 43 -48 21 -44 32 -56 62 -65 44 -13 163 -9 189 7 20 13 24 13 -78 -4
-74 -12 -169 32 -154 71 3 7 0 15 -7 18 -8 3 -7 5 2 5 9 1 6 8 -9 21 -18 16
-20 20 -7 20 10 0 17 7 17 15 0 8 5 15 11 15 5 0 7 5 4 10 -4 6 6 10 22 10 16
0 38 7 49 15 12 8 24 11 28 8 3 -3 6 -2 6 4 0 17 -43 12 -85 -9z"/>
<path d="M875 1423 c-55 -7 -61 -16 -15 -23 44 -7 75 3 64 21 -3 5 -8 8 -12 8
-4 -1 -20 -4 -37 -6z"/>
<path d="M1225 1406 c-30 -11 -48 -26 -40 -35 3 -2 11 2 20 9 13 11 15 9 15
-14 0 -24 2 -25 25 -14 19 8 28 8 40 -2 12 -10 20 -9 41 5 14 9 32 14 40 11
20 -8 17 11 -5 35 -20 22 -80 24 -136 5z m110 -17 c4 -5 -1 -17 -11 -24 -27
-20 -33 -18 -27 8 4 18 3 19 -6 7 -10 -13 -11 -13 -11 0 0 13 -1 13 -10 0 -5
-8 -12 -11 -17 -7 -4 5 -2 11 4 15 20 12 71 13 78 1z"/>
<path d="M470 1404 c0 -8 64 -66 90 -82 41 -25 29 -6 -20 33 -28 22 -50 43
-50 47 0 5 -4 8 -10 8 -5 0 -10 -3 -10 -6z"/>
<path d="M450 1380 c0 -7 -7 -10 -15 -7 -8 4 -17 2 -20 -3 -4 -6 1 -10 9 -10
17 0 19 -5 20 -59 1 -19 7 -36 14 -39 9 -3 12 6 11 30 -1 18 1 42 5 54 4 14 1
26 -9 34 -12 10 -15 10 -15 0z"/>
<path d="M954 1378 c-4 -7 -3 -10 1 -5 5 4 17 0 27 -10 17 -15 17 -17 1 -36
-17 -18 -17 -19 1 -33 19 -13 19 -14 1 -48 -11 -20 -32 -41 -47 -47 -16 -6
-26 -14 -23 -17 3 -3 20 3 37 12 39 21 83 103 66 123 -7 9 -6 15 6 19 23 9 20
27 -4 19 -11 -4 -20 -2 -20 4 0 18 -38 33 -46 19z"/>
<path d="M805 1366 c-51 -12 -108 -34 -91 -35 5 -1 1 -10 -9 -21 -20 -22 -74
-27 -92 -9 -7 7 -12 6 -16 -5 -5 -12 0 -16 23 -16 24 0 32 -6 43 -32 21 -49
48 -68 113 -78 71 -12 84 -12 64 -1 -8 5 -37 12 -65 16 -55 7 -76 19 -93 52
-16 29 -15 43 2 43 7 0 19 7 26 15 7 9 19 14 25 11 7 -2 12 3 11 11 -2 22 22
28 26 6 2 -13 12 -18 36 -18 33 0 46 14 36 40 -8 20 10 19 42 -1 13 -9 27 -14
30 -11 3 3 -4 10 -15 17 -12 6 -19 15 -16 21 8 11 -16 10 -80 -5z"/>
<path d="M343 1307 c3 -9 1 -17 -6 -20 -17 -5 8 -133 46 -240 10 -28 47 -58
47 -37 0 5 -4 10 -9 10 -10 0 -41 61 -41 80 0 6 5 8 11 4 7 -4 5 6 -3 22 -36
69 -41 84 -36 134 3 29 1 53 -5 57 -6 4 -8 0 -4 -10z"/>
<path d="M890 1275 c-14 -7 -41 -18 -60 -24 -33 -10 -33 -10 15 -6 27 3 56 12
64 20 21 21 10 26 -19 10z"/>
<path d="M1508 1220 c-22 -233 -22 -236 -37 -233 -14 4 -15 -14 -1 -22 13 -8
13 -25 1 -25 -5 0 -16 7 -25 15 -21 21 -29 19 -16 -5 6 -11 17 -20 24 -20 19
0 15 -29 -6 -36 -23 -7 -24 -24 0 -24 16 -1 16 -1 0 -11 -11 -6 -18 -22 -18
-40 0 -18 -4 -28 -10 -24 -5 3 -11 0 -11 -7 -3 -27 -4 -34 -17 -55 -7 -13 -19
-20 -30 -18 -15 3 -18 -3 -18 -35 1 -21 -3 -36 -9 -34 -5 2 -19 -9 -29 -25
-11 -16 -31 -35 -44 -44 -24 -14 -27 -13 -45 7 -18 20 -14 4 6 -21 11 -15 47
2 91 43 16 15 27 23 24 18 -60 -129 -63 -133 -93 -139 -23 -4 -27 -8 -15 -15
8 -5 17 -5 20 -1 3 4 12 10 20 13 9 3 40 52 69 109 30 57 62 115 71 129 75
108 138 415 111 535 -6 25 -8 19 -13 -35z"/>
<path d="M456 1242 c-9 -15 -4 -112 5 -106 5 3 8 30 8 60 -2 54 -3 61 -13 46z"/>
<path d="M1182 1160 c21 -29 38 -39 38 -22 0 10 -43 52 -53 52 -4 0 2 -13 15
-30z"/>
<path d="M1037 1145 c-10 -21 -16 -40 -13 -42 8 -8 38 46 34 63 -2 11 -9 5
-21 -21z"/>
<path d="M946 1098 c-9 -30 7 -68 30 -68 12 0 12 -4 4 -20 -9 -16 -8 -18 5
-14 8 4 15 12 15 19 0 15 32 25 60 18 16 -4 19 -12 16 -43 -2 -20 -7 -43 -11
-51 -6 -10 -4 -10 7 1 9 8 18 30 21 47 9 46 -25 68 -87 59 l-45 -7 -3 43 c-3
39 -4 41 -12 16z"/>
<path d="M1288 1085 c30 -25 81 -49 89 -41 3 2 -15 13 -40 24 -24 11 -48 25
-51 31 -4 6 -12 11 -17 11 -6 0 3 -11 19 -25z"/>
<path d="M451 1058 c0 -21 4 -38 10 -38 6 0 8 -8 4 -19 -3 -11 -2 -22 4 -25 5
-3 12 -24 16 -46 4 -22 11 -40 16 -40 5 0 9 -5 9 -11 0 -6 7 -18 16 -26 13
-14 17 -14 25 -2 5 8 9 19 9 24 0 6 -5 3 -10 -5 -8 -13 -11 -12 -24 5 -9 11
-16 29 -16 40 0 11 -7 31 -15 45 -22 38 -19 57 5 35 25 -23 26 -15 1 13 -10
12 -22 18 -26 14 -4 -4 -6 5 -3 20 3 15 2 25 -3 23 -4 -3 -10 3 -12 12 -3 10
-5 1 -6 -19z"/>
<path d="M1201 1059 c-6 -11 -24 -27 -39 -37 -28 -18 -45 -58 -20 -49 7 2 12
12 12 21 -2 18 11 22 21 5 5 -6 12 -4 22 8 8 10 11 12 7 4 -4 -9 -3 -12 4 -7
6 4 8 14 5 23 -4 9 1 21 11 28 13 10 14 14 3 18 -7 3 -19 -4 -26 -14z"/>
<path d="M870 1057 c0 -7 -10 -19 -21 -27 -12 -8 -34 -25 -48 -38 -19 -17 -14
-15 19 6 25 16 54 39 64 51 17 19 17 21 3 21 -10 0 -17 -6 -17 -13z"/>
<path d="M1373 996 c-6 -8 -9 -17 -6 -20 4 -3 -1 -6 -11 -6 -13 0 -16 -5 -11
-22 6 -22 6 -22 -11 2 -9 14 -19 27 -20 28 -1 2 -17 -11 -36 -30 -28 -30 -44
-36 -113 -48 -86 -16 -231 -19 -280 -8 -26 6 -24 4 10 -13 34 -17 53 -19 124
-14 140 9 223 26 250 51 14 13 28 21 33 18 4 -3 8 3 8 12 0 16 15 11 15 -4 0
-4 4 -12 8 -19 11 -18 43 17 52 56 7 34 6 37 -12 17z"/>
<path d="M798 925 c-21 -28 -14 -63 8 -44 16 13 19 -2 4 -17 -8 -8 -7 -14 2
-22 10 -8 14 -3 16 24 1 24 -3 36 -14 41 -11 4 -12 8 -4 13 7 4 11 12 9 18 -2
6 -12 0 -21 -13z"/>
<path d="M501 769 c-1 -41 -6 -62 -22 -80 -11 -13 -24 -29 -27 -34 -9 -13
-113 -65 -130 -65 -6 0 -12 -5 -12 -11 0 -18 257 -267 365 -354 115 -93 254
-189 262 -182 3 3 -13 17 -35 31 -22 14 -43 30 -47 35 -3 6 -28 23 -55 38 -28
15 -50 32 -50 37 0 18 -32 45 -46 39 -8 -3 -14 1 -14 11 0 9 -4 16 -9 16 -6 0
-8 9 -6 19 2 14 -1 18 -11 14 -7 -3 -11 -10 -7 -17 4 -6 -1 -5 -10 3 -18 15
-23 26 -7 16 6 -3 10 -1 10 5 0 7 -7 9 -16 6 -9 -4 -23 -1 -30 5 -12 9 -12 15
-2 28 11 14 11 14 -2 4 -12 -9 -23 -2 -61 38 -25 27 -43 51 -40 54 3 3 -5 8
-17 12 -12 3 -22 12 -22 19 0 8 -5 14 -10 14 -16 0 -95 85 -97 104 0 11 4 15
13 12 8 -3 23 3 34 14 11 11 20 15 20 8 0 -7 15 5 34 25 29 32 35 35 39 20 3
-10 5 -1 6 19 0 20 6 38 11 40 7 2 7 21 1 58 l-9 55 -1 -56z"/>
<path d="M1217 808 c-10 -5 -25 -7 -33 -4 -8 3 -14 1 -14 -4 0 -6 -7 -10 -15
-10 -8 0 -15 4 -15 10 0 5 -7 7 -15 4 -8 -4 -15 -12 -15 -20 0 -16 37 -19 60
-4 8 5 17 5 20 0 3 -5 16 0 30 10 27 21 25 34 -3 18z"/>
<path d="M1344 789 c-3 -6 -2 -15 2 -19 12 -12 38 5 30 19 -9 14 -23 14 -32 0z"/>
<path d="M1014 781 c-14 -14 1 -22 38 -19 55 4 62 25 8 24 -23 -1 -43 -3 -46
-5z"/>
<path d="M500 626 c0 -17 40 -141 51 -156 9 -12 10 -11 4 5 -4 11 -14 45 -22
75 -14 53 -32 94 -33 76z"/>
<path d="M952 549 c3 -8 11 -13 18 -11 7 1 17 -1 24 -6 6 -5 23 -6 37 -3 23 5
25 8 13 19 -10 9 -14 9 -14 1 0 -11 -25 -8 -65 8 -13 4 -16 2 -13 -8z"/>
<path d="M281 503 c8 -13 20 -23 27 -23 8 0 10 5 6 12 -5 8 -2 9 9 5 24 -9 21
0 -4 14 -15 8 -19 8 -15 0 10 -15 -7 -14 -23 2 -11 9 -10 7 0 -10z"/>
<path d="M1320 470 c6 -11 8 -20 4 -20 -3 0 -2 -6 4 -12 9 -12 9 -71 0 -108
-10 -38 -53 -118 -62 -113 -5 3 -6 2 -3 -3 3 -6 2 -16 -4 -24 -7 -13 -9 -13
-9 0 0 9 -6 4 -13 -10 -8 -14 -20 -24 -28 -22 -8 2 -11 0 -7 -4 4 -4 -2 -16
-15 -27 -12 -10 -40 -35 -62 -55 l-40 -35 45 24 c116 63 225 214 225 314 0 51
-20 115 -37 115 -5 0 -4 -9 2 -20z"/>
<path d="M321 471 c-11 -7 -9 -10 8 -16 12 -3 18 -11 15 -17 -4 -6 2 -5 15 2
18 9 21 30 5 30 -3 0 -2 -4 1 -10 7 -12 3 -12 -20 -4 -13 5 -14 8 -3 15 7 5 9
9 3 9 -5 0 -16 -4 -24 -9z"/>
<path d="M370 430 c-11 -7 -11 -10 -2 -10 7 0 10 -4 7 -10 -3 -5 -1 -10 5 -10
6 0 8 -4 5 -10 -4 -6 1 -7 11 -3 12 4 15 3 10 -5 -5 -8 -2 -10 9 -6 11 4 14 2
9 -9 -8 -23 16 -32 34 -12 16 16 16 17 -8 5 l-25 -13 19 22 c19 21 19 21 1 15
-12 -5 -16 -4 -11 4 5 8 1 10 -11 5 -16 -6 -16 -5 -4 10 12 15 12 17 -4 11
-13 -5 -16 -4 -11 4 5 8 1 10 -10 5 -12 -4 -15 -3 -10 5 9 14 6 15 -14 2z"/>
<path d="M480 325 c-10 -12 -10 -19 -2 -27 9 -9 16 -7 30 7 9 11 10 14 3 7
-24 -20 -36 -14 -16 8 10 11 13 20 8 20 -6 0 -16 -7 -23 -15z"/>
<path d="M1347 237 c20 -32 0 -64 -27 -44 -8 6 -6 2 4 -11 19 -22 32 -30 22
-13 -3 5 1 11 9 15 9 3 12 12 8 22 -4 11 -2 15 4 11 7 -4 10 0 9 10 -2 9 -10
17 -19 19 -11 1 -14 -2 -10 -9z"/>
<path d="M1311 163 c12 -15 12 -16 -3 -10 -10 3 -17 3 -17 -1 4 -22 -2 -32
-13 -26 -8 5 -7 1 1 -10 14 -17 15 -17 28 0 7 10 13 22 13 27 0 4 6 5 13 1 6
-4 3 2 -7 14 -22 26 -35 30 -15 5z"/>
<path d="M462 3 c258 -2 678 -2 935 0 258 1 47 2 -467 2 -514 0 -725 -1 -468
-2z"/>
</g>
</svg>
